<?xml version="1.0" encoding="iso-8859-1"?>
<!-- Generator: Adobe Illustrator 19.0.0, SVG Export Plug-In . SVG Version: 6.00 Build 0)  -->
<svg version="1.1" id="Layer_1" xmlns="http://www.w3.org/2000/svg" xmlns:xlink="http://www.w3.org/1999/xlink" x="0px" y="0px"
	 viewBox="0 0 512 512" style="enable-background:new 0 0 512 512;" xml:space="preserve">
<rect x="64.992" y="294.92" style="fill:#754C24;" width="386.111" height="47.11"/>
<g>
	<rect x="64.992" y="342.03" style="fill:#A67C52;" width="44.551" height="68.62"/>
	<rect x="406.55" y="342.03" style="fill:#A67C52;" width="44.551" height="68.62"/>
	<rect x="292.87" y="342.03" style="fill:#A67C52;" width="44.551" height="68.62"/>
	<rect x="179.19" y="342.03" style="fill:#A67C52;" width="44.551" height="68.62"/>
</g>
<rect x="100.33" y="121.37" style="fill:#FBB03B;" width="315.441" height="173.55"/>
<rect x="100.33" y="183.279" style="fill:#A67C52;" width="315.441" height="111.63"/>
<g>
	<rect x="219.13" y="183.279" style="fill:#754C24;" width="77.84" height="111.63"/>
	<polygon style="fill:#754C24;" points="66.792,121.833 258.048,31.707 449.306,121.833 	"/>
</g>
<path d="M90.126,284.718H64.992c-5.632,0-10.199,4.566-10.199,10.199v47.112v33.84H10.199C4.567,375.87,0,380.436,0,386.069
	s4.567,10.199,10.199,10.199h44.594v14.381c0,5.633,4.567,10.199,10.199,10.199h64.011c5.632,0,10.199-4.566,10.199-10.199
	c0-5.633-4.567-10.199-10.199-10.199h-9.26v-48.221h49.245v23.641h-17.453c-5.632,0-10.199,4.566-10.199,10.199
	s4.567,10.199,10.199,10.199h17.453v14.381c0,5.633,4.567,10.199,10.199,10.199h44.552c5.632,0,10.199-4.566,10.199-10.199v-14.381
	h18.989c5.632,0,10.199-4.566,10.199-10.199s-4.567-10.199-10.199-10.199h-18.989v-23.641h48.733v48.221h-8.236
	c-5.632,0-10.199,4.566-10.199,10.199c0,5.633,4.567,10.199,10.199,10.199h62.986c5.632,0,10.199-4.566,10.199-10.199v-14.381
	h48.733v14.381c0,5.633,4.567,10.199,10.199,10.199h44.552c5.632,0,10.199-4.566,10.199-10.199v-14.381h40.496
	c5.632,0,10.199-4.566,10.199-10.199s-4.567-10.199-10.199-10.199h-40.497v-33.84v-47.112c0-5.633-4.567-10.199-10.199-10.199
	H425.97V132.032h23.336c4.775,0,8.91-3.313,9.953-7.972c1.043-4.659-1.287-9.418-5.605-11.454L262.396,22.481
	c-2.753-1.297-5.942-1.297-8.695,0L62.444,112.607c-4.318,2.036-6.649,6.795-5.605,11.454c1.043,4.659,5.178,7.972,9.953,7.972
	h23.336v152.686H90.126z M229.329,193.482h57.439v91.236h-57.439V193.482z M307.166,193.482h98.405v91.236h-98.405V193.482z
	 M258.049,42.981l143.514,67.629h-287.03L258.049,42.981z M405.571,132.032v41.052H110.525v-41.052H405.571z M110.525,193.482
	h98.405v91.236h-98.405V193.482z M75.192,305.117h25.135h315.444h25.135v26.714H75.192V305.117z M99.344,400.451H75.192v-48.222
	h24.154v48.222H99.344z M213.54,400.451h-24.154v-48.222h24.154L213.54,400.451L213.54,400.451z M327.222,400.451h-24.153v-48.222
	h24.153V400.451z M347.62,375.87v-23.641h48.733v23.641H347.62z M440.905,400.451h-24.154v-48.222h24.154V400.451z"/>
<path d="M483.366,435.272H182.26c-5.632,0-10.199,4.566-10.199,10.199s4.567,10.199,10.199,10.199h301.106
	c5.632,0,10.199-4.566,10.199-10.199S488.998,435.272,483.366,435.272z"/>
<path d="M177.139,470.094H77.794c-5.632,0-10.199,4.566-10.199,10.199s4.567,10.199,10.199,10.199h99.343
	c5.632,0,10.199-4.566,10.199-10.199S182.771,470.094,177.139,470.094z"/>
<path d="M223.226,470.094h-8.233c-5.632,0-10.199,4.566-10.199,10.199s4.567,10.199,10.199,10.199h8.233
	c5.632,0,10.199-4.566,10.199-10.199S228.859,470.094,223.226,470.094z"/>
<path d="M134.124,162.757h154.651c5.632,0,10.199-4.566,10.199-10.199s-4.567-10.199-10.199-10.199H134.124
	c-5.632,0-10.199,4.566-10.199,10.199S128.491,162.757,134.124,162.757z"/>
<path d="M326.667,162.757h11.266c5.632,0,10.199-4.566,10.199-10.199s-4.567-10.199-10.199-10.199h-11.266
	c-5.632,0-10.199,4.566-10.199,10.199S321.035,162.757,326.667,162.757z"/>
<path d="M366.61,223.268h-23.556c-5.632,0-10.199,4.566-10.199,10.199s4.567,10.199,10.199,10.199h23.556
	c5.632,0,10.199-4.566,10.199-10.199S372.243,223.268,366.61,223.268z"/>
<path d="M170.994,223.268h-23.556c-5.632,0-10.199,4.566-10.199,10.199s4.567,10.199,10.199,10.199h23.556
	c5.632,0,10.199-4.566,10.199-10.199S176.627,223.268,170.994,223.268z"/>
<path d="M245.758,224.293c-5.632,0-10.199,4.566-10.199,10.199v10.242c0,5.633,4.567,10.199,10.199,10.199
	s10.199-4.566,10.199-10.199v-10.242C255.957,228.859,251.39,224.293,245.758,224.293z"/>
<g>
</g>
<g>
</g>
<g>
</g>
<g>
</g>
<g>
</g>
<g>
</g>
<g>
</g>
<g>
</g>
<g>
</g>
<g>
</g>
<g>
</g>
<g>
</g>
<g>
</g>
<g>
</g>
<g>
</g>
</svg>
